<svg width="71" height="64" viewBox="0 0 71 64" fill="none" xmlns="http://www.w3.org/2000/svg">
<circle cx="30.0001" cy="30.0001" r="28.0001" stroke="#6E63FF" stroke-width="4"/>
<path d="M20.7446 34.0365H14.1227C13.7283 34.0365 13.3639 34.2469 13.1669 34.5883C12.9698 34.9298 12.9698 35.3505 13.1669 35.692C13.3639 36.0334 13.7283 36.2438 14.1227 36.2438H20.7446C21.139 36.2438 21.5034 36.0334 21.7005 35.692C21.8975 35.3505 21.8975 34.9298 21.7005 34.5883C21.5034 34.2469 21.139 34.0365 20.7446 34.0365Z" fill="#6E63FF"/>
<path d="M32.8848 34.0365H26.2628C25.8684 34.0365 25.5041 34.2469 25.307 34.5883C25.1099 34.9298 25.1099 35.3505 25.307 35.692C25.5041 36.0334 25.8684 36.2438 26.2628 36.2438H32.8848C33.2792 36.2438 33.6435 36.0334 33.8406 35.692C34.0377 35.3505 34.0377 34.9298 33.8406 34.5883C33.6435 34.2469 33.2792 34.0365 32.8848 34.0365Z" fill="#6E63FF"/>
<path d="M45.0254 34.0365H38.4034C38.009 34.0365 37.6447 34.2469 37.4476 34.5883C37.2505 34.9298 37.2505 35.3505 37.4476 35.692C37.6447 36.0334 38.0091 36.2438 38.4034 36.2438H45.0254C45.4198 36.2438 45.7841 36.0334 45.9812 35.692C46.1783 35.3505 46.1783 34.9298 45.9812 34.5883C45.7841 34.2469 45.4198 34.0365 45.0254 34.0365Z" fill="#6E63FF"/>
<path d="M13.1405 29.6219C13.2396 29.7936 13.3829 29.9355 13.5559 30.0326C13.7288 30.1296 13.9244 30.1784 14.1227 30.1737C14.2959 30.1757 14.4666 30.1341 14.6194 30.0523L16.33 29.2026V30.7255C16.33 31.1199 16.5404 31.4843 16.8819 31.6813C17.2233 31.8784 17.6441 31.8784 17.9855 31.6813C18.327 31.4843 18.5374 31.1199 18.5374 30.7255V29.2026L20.248 30.0525V30.0523C20.4008 30.1341 20.5715 30.1757 20.7447 30.1737C20.943 30.1784 21.1386 30.1296 21.3115 30.0326C21.4845 29.9355 21.6279 29.7936 21.7269 29.6219C21.8579 29.3613 21.8804 29.0595 21.7892 28.7824C21.6983 28.5052 21.5012 28.2754 21.2413 28.1431L19.9058 27.4146L21.2413 26.7413C21.5246 26.6233 21.7459 26.393 21.8523 26.1052C21.9587 25.8175 21.9405 25.4982 21.802 25.2245C21.6636 24.9508 21.4175 24.7468 21.1226 24.6621C20.8277 24.5771 20.5109 24.6187 20.2481 24.7769L18.5374 25.6266V24.1036C18.5374 23.7092 18.327 23.3449 17.9856 23.1478C17.6441 22.9507 17.2234 22.9507 16.8819 23.1478C16.5405 23.3449 16.3301 23.7092 16.3301 24.1036V25.6266L14.6194 24.7766V24.7769C14.2733 24.6327 13.8774 24.6741 13.5687 24.887C13.2601 25.0998 13.0805 25.4551 13.092 25.8298C13.1036 26.2047 13.3049 26.5479 13.6261 26.7413L14.9616 27.4146L13.6261 28.0878C13.3515 28.2196 13.1433 28.4591 13.0514 28.7498C12.9595 29.0402 12.9918 29.3561 13.1406 29.6219L13.1405 29.6219Z" fill="#6E63FF"/>
<path d="M25.2807 29.6219C25.3724 29.804 25.5128 29.9569 25.686 30.0641C25.8594 30.1713 26.0592 30.2282 26.2629 30.2289C26.4361 30.2309 26.6068 30.1893 26.7596 30.1075L28.4702 29.2026V30.7255C28.4702 31.1199 28.6806 31.4843 29.0221 31.6813C29.3635 31.8784 29.7843 31.8784 30.1257 31.6813C30.4672 31.4843 30.6776 31.1199 30.6776 30.7255V29.2026L32.3882 30.0525V30.0523C32.541 30.1341 32.7117 30.1757 32.8849 30.1737C33.0886 30.173 33.2884 30.1161 33.4618 30.0089C33.635 29.9018 33.7754 29.7488 33.8671 29.5667C33.9981 29.3061 34.0206 29.0043 33.9294 28.7272C33.8385 28.45 33.6414 28.2202 33.3815 28.0879L32.046 27.4146L33.3815 26.7413C33.6648 26.6233 33.8861 26.393 33.9925 26.1052C34.0989 25.8175 34.0807 25.4982 33.9422 25.2245C33.8038 24.9508 33.5577 24.7468 33.2628 24.6621C32.9679 24.5771 32.6511 24.6187 32.3883 24.7769L30.6776 25.6266V24.1036C30.6776 23.7092 30.4672 23.3449 30.1258 23.1478C29.7843 22.9507 29.3636 22.9507 29.0221 23.1478C28.6807 23.3449 28.4703 23.7092 28.4703 24.1036V25.6266L26.7596 24.7766V24.7769C26.4968 24.6187 26.1799 24.5771 25.8851 24.6621C25.5902 24.7468 25.3441 24.9508 25.2057 25.2245C25.0672 25.4982 25.049 25.8175 25.1554 26.1052C25.2618 26.393 25.4831 26.6233 25.7664 26.7413L27.1019 27.4146L25.7664 28.0879C25.4917 28.2197 25.2835 28.4591 25.1916 28.7498C25.0997 29.0403 25.132 29.3561 25.2808 29.6219H25.2807Z" fill="#6E63FF"/>
<path d="M37.4213 29.6219C37.5129 29.804 37.6534 29.9569 37.8265 30.0641C38 30.1713 38.1998 30.2282 38.4035 30.2289C38.5767 30.2309 38.7474 30.1893 38.9001 30.1075L40.6108 29.2026V30.7255C40.6108 31.1199 40.8212 31.4843 41.1626 31.6813C41.5041 31.8784 41.9249 31.8784 42.2663 31.6813C42.6077 31.4843 42.8181 31.1199 42.8181 30.7255V29.2026L44.5288 30.0525V30.0523C44.6815 30.1341 44.8523 30.1757 45.0254 30.1737C45.2292 30.173 45.429 30.1161 45.6024 30.0089C45.7756 29.9018 45.916 29.7488 46.0076 29.5667C46.1387 29.3061 46.1611 29.0043 46.07 28.7272C45.9791 28.45 45.782 28.2202 45.5221 28.0879L44.1866 27.4146L45.5221 26.7413C45.8054 26.6233 46.0266 26.393 46.133 26.1052C46.2395 25.8175 46.2212 25.4982 46.0828 25.2245C45.9443 24.9508 45.6982 24.7468 45.4034 24.6621C45.1085 24.5771 44.7917 24.6187 44.5288 24.7769L42.8182 25.6266V24.1036C42.8182 23.7092 42.6078 23.3449 42.2663 23.1478C41.9249 22.9507 41.5041 22.9507 41.1627 23.1478C40.8212 23.3449 40.6109 23.7092 40.6109 24.1036V25.6266L38.9002 24.7766V24.7769C38.5541 24.6327 38.1581 24.6741 37.8495 24.887C37.5408 25.0998 37.3612 25.4551 37.3728 25.8298C37.3844 26.2047 37.5857 26.5479 37.9069 26.7413L39.2424 27.4146L37.9069 28.0878C37.6322 28.2196 37.4241 28.4591 37.3322 28.7498C37.2403 29.0402 37.2725 29.3561 37.4213 29.6219L37.4213 29.6219Z" fill="#6E63FF"/>
<circle cx="56" cy="49.0004" r="13.5" fill="#6E63FF" stroke="white" stroke-width="3"/>
<path d="M55.8991 41.5604C57.2858 41.5604 58.3991 41.9404 59.2391 42.7004C60.0925 43.447 60.5191 44.4804 60.5191 45.8004C60.5191 47.107 60.0991 48.107 59.2591 48.8004C58.4191 49.4804 57.3058 49.8204 55.9191 49.8204L55.8391 51.3604H53.3791L53.2791 47.9604H54.1791C55.3391 47.9604 56.2325 47.807 56.8591 47.5004C57.4858 47.1937 57.7991 46.6337 57.7991 45.8204C57.7991 45.2337 57.6258 44.767 57.2791 44.4204C56.9458 44.0737 56.4858 43.9004 55.8991 43.9004C55.2858 43.9004 54.8058 44.067 54.4591 44.4004C54.1258 44.7337 53.9591 45.1937 53.9591 45.7804H51.3191C51.3058 44.967 51.4791 44.2404 51.8391 43.6004C52.1991 42.9604 52.7258 42.4604 53.4191 42.1004C54.1258 41.7404 54.9525 41.5604 55.8991 41.5604ZM54.5991 56.1404C54.0925 56.1404 53.6725 55.987 53.3391 55.6804C53.0191 55.3604 52.8591 54.967 52.8591 54.5004C52.8591 54.0337 53.0191 53.647 53.3391 53.3404C53.6725 53.0204 54.0925 52.8604 54.5991 52.8604C55.0925 52.8604 55.4991 53.0204 55.8191 53.3404C56.1391 53.647 56.2991 54.0337 56.2991 54.5004C56.2991 54.967 56.1391 55.3604 55.8191 55.6804C55.4991 55.987 55.0925 56.1404 54.5991 56.1404Z" fill="white"/>
</svg>
