<svg width="496" height="484" viewBox="0 0 496 484" fill="none" xmlns="http://www.w3.org/2000/svg">
<g filter="url(#filter0_d_4701_10130)">
<path d="M176.74 27.8888C174.23 21.1618 168.208 16 161.028 16H36C24.9543 16 16 24.9543 16 36V448C16 459.046 24.9543 468 36 468H460C471.046 468 480 459.046 480 448V36C480 24.9543 471.046 16 460 16H333.972C326.792 16 320.77 21.1618 318.26 27.8888C307.558 56.5727 279.915 77 247.5 77C215.085 77 187.442 56.5727 176.74 27.8888Z" fill="white"/>
</g>
<defs>
<filter id="filter0_d_4701_10130" x="0" y="0" width="496" height="484" filterUnits="userSpaceOnUse" color-interpolation-filters="sRGB">
<feFlood flood-opacity="0" result="BackgroundImageFix"/>
<feColorMatrix in="SourceAlpha" type="matrix" values="0 0 0 0 0 0 0 0 0 0 0 0 0 0 0 0 0 0 127 0" result="hardAlpha"/>
<feOffset/>
<feGaussianBlur stdDeviation="8"/>
<feComposite in2="hardAlpha" operator="out"/>
<feColorMatrix type="matrix" values="0 0 0 0 0.0924479 0 0 0 0 0.149396 0 0 0 0 0.295833 0 0 0 0.08 0"/>
<feBlend mode="normal" in2="BackgroundImageFix" result="effect1_dropShadow_4701_10130"/>
<feBlend mode="normal" in="SourceGraphic" in2="effect1_dropShadow_4701_10130" result="shape"/>
</filter>
</defs>
</svg>
