<svg width="357" height="459" viewBox="0 0 357 459" fill="none" xmlns="http://www.w3.org/2000/svg">
<g filter="url(#filter0_d_5806_9206)">
<path d="M130.003 27.7491C127.026 21.2156 121.058 16 113.878 16H30.0086C22.2719 16 16 22.2719 16 30.0086V428.718C16 436.454 22.2719 442.726 30.0086 442.726H178.5H326.991C334.728 442.726 341 436.454 341 428.718V30.0086C341 22.2719 334.728 16 326.991 16H242.421C235.241 16 229.274 21.2156 226.296 27.7491C217.969 46.0234 199.543 58.7263 178.15 58.7263C156.757 58.7263 138.331 46.0234 130.003 27.7491Z" fill="white"/>
</g>
<defs>
<filter id="filter0_d_5806_9206" x="0" y="0" width="357" height="458.726" filterUnits="userSpaceOnUse" color-interpolation-filters="sRGB">
<feFlood flood-opacity="0" result="BackgroundImageFix"/>
<feColorMatrix in="SourceAlpha" type="matrix" values="0 0 0 0 0 0 0 0 0 0 0 0 0 0 0 0 0 0 127 0" result="hardAlpha"/>
<feOffset/>
<feGaussianBlur stdDeviation="8"/>
<feComposite in2="hardAlpha" operator="out"/>
<feColorMatrix type="matrix" values="0 0 0 0 0.0924479 0 0 0 0 0.149396 0 0 0 0 0.295833 0 0 0 0.08 0"/>
<feBlend mode="normal" in2="BackgroundImageFix" result="effect1_dropShadow_5806_9206"/>
<feBlend mode="normal" in="SourceGraphic" in2="effect1_dropShadow_5806_9206" result="shape"/>
</filter>
</defs>
</svg>
