<svg width="496" height="618" viewBox="0 0 496 618" fill="none" xmlns="http://www.w3.org/2000/svg">
<g filter="url(#filter0_d_5155_9318)">
<path d="M176.74 27.8888C174.23 21.1618 168.208 16 161.028 16H36.0002C24.9545 16 16.0002 24.9543 16.0002 36L16 582C16 593.046 24.9543 602 36 602H460C471.046 602 480 593.046 480 582V36C480 24.9543 471.046 16 460 16H333.972C326.792 16 320.77 21.1618 318.26 27.8888C307.558 56.5727 279.915 77 247.5 77C215.085 77 187.442 56.5727 176.74 27.8888Z" fill="white"/>
</g>
<defs>
<filter id="filter0_d_5155_9318" x="0" y="0" width="496" height="618" filterUnits="userSpaceOnUse" color-interpolation-filters="sRGB">
<feFlood flood-opacity="0" result="BackgroundImageFix"/>
<feColorMatrix in="SourceAlpha" type="matrix" values="0 0 0 0 0 0 0 0 0 0 0 0 0 0 0 0 0 0 127 0" result="hardAlpha"/>
<feOffset/>
<feGaussianBlur stdDeviation="8"/>
<feComposite in2="hardAlpha" operator="out"/>
<feColorMatrix type="matrix" values="0 0 0 0 0.0924479 0 0 0 0 0.149396 0 0 0 0 0.295833 0 0 0 0.08 0"/>
<feBlend mode="normal" in2="BackgroundImageFix" result="effect1_dropShadow_5155_9318"/>
<feBlend mode="normal" in="SourceGraphic" in2="effect1_dropShadow_5155_9318" result="shape"/>
</filter>
</defs>
</svg>
