<svg width="16" height="16" viewBox="0 0 16 16" fill="none" xmlns="http://www.w3.org/2000/svg">
<path d="M15.84 7.83993C14.72 6.07993 12.96 4.79993 11.04 4.15993C9.12 3.51993 6.88 3.51993 4.96 4.15993C2.88 4.79993 1.28 6.23993 0.16 7.83993C3.57628e-08 7.99993 0 8.15993 0 8.15993C0 8.31993 3.57628e-08 8.31993 0.16 8.47993C1.28 10.2399 3.04 11.5199 4.96 12.1599C6.88 12.7999 9.12 12.7999 11.04 12.1599C12.96 11.5199 14.72 10.2399 15.84 8.47993C16 8.47993 16 8.31993 16 8.15993C16 8.15993 16 7.99993 15.84 7.83993ZM8 11.0399C7.2 11.0399 6.56 10.7199 5.92 10.2399C5.28 9.75993 5.12 8.95993 5.12 8.15993C5.12 7.35993 5.44 6.71993 5.92 6.07993C6.4 5.43993 7.2 5.43993 8 5.43993C8.8 5.43993 9.44 5.75993 10.08 6.23993C10.56 6.71993 10.88 7.51993 10.88 8.31993C10.88 9.11993 10.56 9.75993 10.08 10.3999C9.44 10.7199 8.8 11.0399 8 11.0399Z" fill="#96A5B5"/>
<path d="M9.75999 8.15994C9.75999 9.11994 8.95999 9.91994 7.99999 9.91994C7.03999 9.91994 6.23999 9.11994 6.23999 8.15994C6.23999 7.19994 7.03999 6.55994 7.99999 6.55994C8.95999 6.55994 9.75999 7.19994 9.75999 8.15994Z" fill="#96A5B5"/>
<path d="M1.78235 1.66553L14.6975 14.3342" stroke="#96A5B5" stroke-width="2" stroke-miterlimit="10" stroke-linecap="round"/>
</svg>
