<?xml version="1.0" encoding="utf-8"?>
<!-- Generator: Adobe Illustrator 23.0.1, SVG Export Plug-In . SVG Version: 6.00 Build 0)  -->
<svg version="1.1" id="Layer_1" xmlns="http://www.w3.org/2000/svg" xmlns:xlink="http://www.w3.org/1999/xlink" x="0px" y="0px"
	 viewBox="0 0 28 28" enable-background="new 0 0 28 28" xml:space="preserve">
<g id="Group_60484" transform="translate(-24 -15)">
	<path id="Rectangle_1197" fill="#6E63FF" d="M27,21h13c0.6,0,1,0.4,1,1l0,0c0,0.6-0.4,1-1,1H27c-0.6,0-1-0.4-1-1l0,0
		C26,21.4,26.4,21,27,21z"/>
	<path id="Rectangle_1198" fill="#6E63FF" d="M27,28h22c0.6,0,1,0.4,1,1l0,0c0,0.6-0.4,1-1,1H27c-0.6,0-1-0.4-1-1l0,0
		C26,28.4,26.4,28,27,28z"/>
	<path id="Rectangle_1199" fill="#6E63FF" d="M27,35h18c0.6,0,1,0.4,1,1l0,0c0,0.6-0.4,1-1,1H27c-0.6,0-1-0.4-1-1l0,0
		C26,35.4,26.4,35,27,35z"/>
</g>
</svg>
