<svg id="Group_60483" data-name="Group 60483" xmlns="http://www.w3.org/2000/svg" width="141.543" height="25.004" viewBox="0 0 141.543 25.004">
    <defs>
        <style>
            .cls-1{fill:#87dd75;fill-rule:evenodd}
        </style>
    </defs>
    <path id="Path_33448" data-name="Path 33448" d="M262.176 37.832h3.957v-4.215l1.38-1.448 3.645 5.663h4.53l-5.493-8.4 5.311-5.456h-4.738l-4.634 5.043V18.955h-3.957z" transform="translate(-228.512 -16.559)"/>
    <path id="Path_33449" data-name="Path 33449" d="M375.826 70.718h3.957v-7.732c0-1.862.963-2.819 2.473-2.819s2.4.957 2.4 2.819v7.732h3.957v-8.973c0-3.181-1.744-5.146-4.738-5.146a4.944 4.944 0 0 0-4.087 2.224v-1.965h-3.957z" transform="translate(-327.573 -49.445)"/>
    <path id="Path_33450" data-name="Path 33450" d="M498.082 71.029a7.222 7.222 0 1 0-7.524-7.215 7.3 7.3 0 0 0 7.524 7.215zm.052-3.388a3.694 3.694 0 0 1-3.671-3.827 3.576 3.576 0 0 1 3.619-3.827 3.694 3.694 0 0 1 3.671 3.827 3.576 3.576 0 0 1-3.619 3.827z" transform="translate(-427.556 -49.445)"/>
    <path id="Path_33451" data-name="Path 33451" d="M614.451 72.252h3.54l2.733-8.508 2.682 8.508h3.567l4.348-13.964h-3.931l-2.291 8.43-2.655-8.482h-3.41l-2.634 8.456-2.239-8.4h-4.009z" transform="translate(-531.73 -50.875)"/>
    <path id="Path_33452" data-name="Path 33452" d="M785.086 71.029a7 7 0 0 0 5.7-2.586l-2.265-1.991a4.588 4.588 0 0 1-3.384 1.422 3.232 3.232 0 0 1-3.411-2.715h9.711c.026-.362.052-.724.052-1.034 0-3.931-2.135-7.525-6.795-7.525a7.218 7.218 0 0 0 .39 14.43zm-3.41-8.327c.312-1.784 1.38-2.948 3.02-2.948 1.666 0 2.707 1.19 2.942 2.948z" transform="translate(-677.923 -49.445)"/>
    <path id="Path_33453" data-name="Path 33453" d="M902.669 37.832h3.957V18.955h-3.957z" transform="translate(-786.574 -16.559)"/>
    <path id="Path_33454" data-name="Path 33454" d="M956.582 37.832h3.957V18.955h-3.957z" transform="translate(-833.672 -16.559)"/>
    <path id="Path_33455" data-name="Path 33455" d="M1007.251 71.692a5.385 5.385 0 0 0 4.218-1.758v1.5h3.826v-8.043a6.02 6.02 0 0 0-1.509-4.422 6.47 6.47 0 0 0-4.712-1.552 12.378 12.378 0 0 0-5.415 1.112l.988 3a10.327 10.327 0 0 1 3.854-.75c1.978 0 2.993.905 2.993 2.534v.233a9.977 9.977 0 0 0-3.41-.569c-3.307 0-5.623 1.4-5.623 4.422-.001 2.793 2.16 4.293 4.79 4.293zm1.2-2.715c-1.275 0-2.16-.621-2.16-1.681 0-1.293 1.041-1.965 2.733-1.965a6.165 6.165 0 0 1 2.525.517v.7c-.004 1.42-1.249 2.429-3.101 2.429z" transform="translate(-873.752 -50.16)"/>
    <path id="Path_33456" data-name="Path 33456" class="cls-1" d="M10.318 31.952A9.959 9.959 0 0 0 6.147 23.6 8.562 8.562 0 0 0 3 22.337a2.516 2.516 0 0 0-1.012 4.928 6.067 6.067 0 0 1 1.524.5 4.673 4.673 0 0 1 2.729 4.1v.243a4.743 4.743 0 0 1-2.553 4.068 5.754 5.754 0 0 1-1.732.606A2.465 2.465 0 1 0 3 41.6a9.507 9.507 0 0 0 3.831-1.8 9.825 9.825 0 0 0 3.487-7.848z" transform="translate(0 -19.471)"/>
    <path id="Path_33457" data-name="Path 33457" d="M31.953 116.188a9.958 9.958 0 0 0-8.357 4.171 8.571 8.571 0 0 0-1.259 3.143 2.516 2.516 0 0 0 4.928 1.013 6.087 6.087 0 0 1 .5-1.524 4.671 4.671 0 0 1 4.1-2.729h.244a4.744 4.744 0 0 1 4.069 2.552 5.774 5.774 0 0 1 .606 1.732A2.465 2.465 0 1 0 41.6 123.5a9.514 9.514 0 0 0-1.8-3.832 9.825 9.825 0 0 0-7.847-3.48z" transform="translate(-19.472 -101.502)" style="fill:#6459ff;fill-rule:evenodd"/>
    <path id="Path_33458" data-name="Path 33458" d="M116.184 31.986a9.959 9.959 0 0 0 4.171 8.357A8.571 8.571 0 0 0 123.5 41.6a2.516 2.516 0 0 0 1.012-4.928 6.1 6.1 0 0 1-1.524-.5 4.672 4.672 0 0 1-2.728-4.1v-.242a4.743 4.743 0 0 1 2.552-4.069 5.765 5.765 0 0 1 1.732-.606 2.465 2.465 0 1 0-1.044-4.818 9.514 9.514 0 0 0-3.832 1.8 9.825 9.825 0 0 0-3.484 7.849z" transform="translate(-101.499 -19.462)" style="fill:#ffd600;fill-rule:evenodd"/>
    <path id="Path_33459" data-name="Path 33459" d="M31.989 10.319a9.959 9.959 0 0 0 8.357-4.171A8.561 8.561 0 0 0 41.6 3a2.516 2.516 0 0 0-4.928-1.012 6.07 6.07 0 0 1-.5 1.524 4.673 4.673 0 0 1-4.1 2.728h-.243a4.737 4.737 0 0 1-4.069-2.551 5.762 5.762 0 0 1-.607-1.732 2.465 2.465 0 1 0-4.813 1.048 9.5 9.5 0 0 0 1.8 3.832 9.831 9.831 0 0 0 7.849 3.482z" transform="translate(-19.465)" style="fill:#04b492;fill-rule:evenodd"/>
    <path id="Path_33460" data-name="Path 33460" class="cls-1" d="M10.318 31.952A9.959 9.959 0 0 0 6.147 23.6 8.562 8.562 0 0 0 3 22.337a2.516 2.516 0 0 0-1.012 4.928 6.067 6.067 0 0 1 1.524.5 4.673 4.673 0 0 1 2.729 4.1v.243c2.629 0 1.615-.156 4.077-.156z" transform="translate(0 -19.471)"/>
</svg>
