<svg width="60" height="60" viewBox="0 0 60 60" fill="none" xmlns="http://www.w3.org/2000/svg">
<path d="M29.9999 -0.000366211C22.0432 -0.000366211 14.4129 3.1605 8.78663 8.78651C3.16062 14.4125 -0.000244141 22.0438 -0.000244141 29.9998C-0.000244141 37.9558 3.16062 45.5869 8.78663 51.2131C14.4126 56.8391 22.0439 60 29.9999 60C36.8462 60.027 43.4905 57.6851 48.8073 53.3714C53.6451 49.4786 57.1556 44.1809 58.8547 38.2093C60.5539 32.2373 60.3587 25.8854 58.2948 20.0294C56.231 14.1732 52.401 9.10151 47.3331 5.51374C42.2652 1.92596 36.209 -0.000128017 29.9996 -0.000128017L29.9999 -0.000366211ZM51.5597 44.5298C50.1292 40.0799 45.7133 36.3736 39.7882 34.4005C37.2696 37.1381 33.7195 38.696 29.9992 38.696C26.2789 38.696 22.7289 37.1381 20.2102 34.4C14.2838 36.3736 9.86973 40.0809 8.4402 44.5316C4.90683 39.2911 3.40384 32.9429 4.21123 26.6743C5.019 20.4057 8.08222 14.6456 12.8279 10.4718C17.574 6.29767 23.6781 3.99527 29.9983 3.99527C36.3186 3.9948 42.4222 6.29672 47.1687 10.47C51.9153 14.6437 54.9789 20.4032 55.7867 26.6713C56.595 32.9395 55.0924 39.2881 51.5596 44.5286L51.5597 44.5298Z" fill="#6E63FF"/>
<path d="M40.7953 23.351C40.7953 29.9852 35.9616 35.363 29.9994 35.363C24.0372 35.363 19.2036 29.9849 19.2036 23.351C19.2036 16.7168 24.0372 11.339 29.9994 11.339C35.9616 11.339 40.7953 16.7167 40.7953 23.351Z" fill="#6E63FF"/>
</svg>
