<svg width="16" height="10" viewBox="0 0 16 10" fill="none" xmlns="http://www.w3.org/2000/svg">
<path d="M15.84 4.83993C14.72 3.07993 12.96 1.79993 11.04 1.15993C9.12 0.519932 6.88 0.519932 4.96 1.15993C2.88 1.79993 1.28 3.23993 0.16 4.83993C3.57628e-08 4.99993 0 5.15993 0 5.15993C0 5.31993 3.57628e-08 5.31993 0.16 5.47993C1.28 7.23993 3.04 8.51993 4.96 9.15993C6.88 9.79993 9.12 9.79993 11.04 9.15993C12.96 8.51993 14.72 7.23993 15.84 5.47993C16 5.47993 16 5.31993 16 5.15993C16 5.15993 16 4.99993 15.84 4.83993ZM8 8.03993C7.2 8.03993 6.56 7.71993 5.92 7.23993C5.28 6.75993 5.12 5.95993 5.12 5.15993C5.12 4.35993 5.44 3.71993 5.92 3.07993C6.4 2.43993 7.2 2.43993 8 2.43993C8.8 2.43993 9.44 2.75993 10.08 3.23993C10.56 3.71993 10.88 4.51993 10.88 5.31993C10.88 6.11993 10.56 6.75993 10.08 7.39993C9.44 7.71993 8.8 8.03993 8 8.03993Z" fill="#6E63FF"/>
<path d="M9.76005 5.15994C9.76005 6.11994 8.96005 6.91994 8.00005 6.91994C7.04005 6.91994 6.24005 6.11994 6.24005 5.15994C6.24005 4.19994 7.04005 3.55994 8.00005 3.55994C8.96005 3.55994 9.76005 4.19994 9.76005 5.15994Z" fill="#6E63FF"/>
</svg>
